<?xml version="1.0" standalone="no"?>
<!DOCTYPE svg PUBLIC "-//W3C//DTD SVG 1.1//EN" "http://www.w3.org/Graphics/SVG/1.1/DTD/svg11.dtd" >
<svg xmlns="http://www.w3.org/2000/svg">
<metadata>
This is a custom SVG webfont generated by Font Squirrel.
Copyright   : Typeface  FontSite Inc 19962009 All Rights Reserved wwwfontsitecom
Designer    : FontSitecom
Foundry URL : httpwwwfontsitecom
</metadata>
<defs>
<font id="webfontHqSLgfvq" horiz-adv-x="1146" >
<font-face units-per-em="2048" ascent="1552" descent="-496" />
<missing-glyph horiz-adv-x="512" />
<glyph unicode=" "  horiz-adv-x="512" />
<glyph unicode="&#x09;" horiz-adv-x="512" />
<glyph unicode="&#xa0;" horiz-adv-x="512" />
<glyph unicode="!" horiz-adv-x="653" d="M205 379l194 987h217l-235 -987h-176zM109 0l45 211h217l-45 -211h-217z" />
<glyph unicode="&#x22;" horiz-adv-x="708" d="M516 928l86 547h203l-148 -547h-141zM227 928l84 547h205l-147 -547h-142z" />
<glyph unicode="#" d="M178 0l88 414h-182l29 131h176l63 301h-176l29 131h182l82 389h154l-82 -383h264l82 383h153l-84 -389h181l-29 -131h-178l-64 -301h183l-29 -131h-182l-88 -414h-154l88 414h-264l-88 -414h-154zM449 545h264l63 301h-264z" />
<glyph unicode="$" d="M51 72l62 172q143 -78 303 -90l106 491q-117 61 -172 105q-121 90 -121 249q0 223 201 318q98 45 264 53l39 180h109l-39 -184q147 -12 293 -72l-49 -168q-117 76 -275 91l-92 -435l25 -14q127 -74 160.5 -98.5t62.5 -59.5q68 -86 67 -204q0 -121 -62.5 -216.5 t-176.5 -146.5q-102 -49 -267 -51l-38 -174h-111l39 174q-158 8 -328 80zM582 834l82 385q-109 -6 -171.5 -59.5t-62.5 -139.5q0 -63 36 -106t116 -80zM526 152q119 4 193 67.5t74 159.5q0 72 -36 116t-139 99z" />
<glyph unicode="%" horiz-adv-x="1427" d="M143 -80l1076 1524h129l-1078 -1524h-127zM403 752q-127 0 -195.5 66.5t-68.5 191.5q0 72 24.5 149.5t61.5 124.5q88 104 236 105q119 0 184.5 -66t65.5 -184q0 -174 -90 -287q-83 -100 -218 -100zM401 856q80 0 123 88q43 86 43 201q0 143 -110 143q-84 0 -133 -100 q-41 -86 -41 -191q-1 -141 118 -141zM784 236q0 72 25 149.5t63 124.5q86 104 234 104q119 0 185.5 -65.5t66.5 -181.5q0 -176 -92 -289q-78 -100 -217 -101q-127 0 -196 67t-69 192zM928 223q0 -141 121 -141q78 0 122 88q43 86 43 201q0 143 -112 143q-82 0 -131 -100 q-43 -91 -43 -191z" />
<glyph unicode="&#x26;" horiz-adv-x="1402" d="M1016 0l-72 111q-156 -129 -391 -129q-203 0 -322.5 102t-119.5 276q0 201 161 312q70 47 228 98q-104 158 -105 283q0 143 110.5 235t282.5 92q164 0 261.5 -80.5t97.5 -216.5q0 -133 -92 -225t-289 -156l221 -321q117 141 154 358h172q-23 -158 -85.5 -293t-148.5 -208 l154 -238h-217zM674 823q10 2 26 6q127 37 199 102.5t72 145.5q0 68 -53.5 112t-135.5 44q-88 0 -147.5 -54.5t-59.5 -131.5q1 -118 99 -224zM856 248l-268 395q-111 -35 -172 -74q-106 -66 -107 -194q0 -104 74 -171t190 -67q78 0 141.5 25t141.5 86z" />
<glyph unicode="'" horiz-adv-x="419" d="M227 928l84 547h205l-147 -547h-142z" />
<glyph unicode="(" horiz-adv-x="681" d="M459 -416h-170q-137 444 -137 797q0 375 217 721q94 154 301 373h190q-281 -311 -399.5 -576.5t-118.5 -583.5q0 -323 117 -731z" />
<glyph unicode=")" horiz-adv-x="681" d="M244 1475h170q137 -457 137 -795q0 -375 -217 -723q-90 -143 -299 -373h-193q279 307 398.5 575.5t120 584t-116.5 731.5z" />
<glyph unicode="*" d="M463 766l-119 127l260 186l-291 135l88 150l261 -190l30 319l174 -37l-94 -301l307 59l17 -172h-318l160 -276l-160 -68l-100 299z" />
<glyph unicode="+" d="M537 240v383h-396v149h396v381h149v-381h397v-149h-397v-383h-149z" />
<glyph unicode="," horiz-adv-x="632" d="M-55 -262l227 483h236l-277 -483h-186z" />
<glyph unicode="-" horiz-adv-x="514" d="M-14 449l32 153h514l-32 -153h-514z" />
<glyph unicode="." horiz-adv-x="509" d="M35 0l47 219h221l-45 -219h-223z" />
<glyph unicode="/" horiz-adv-x="772" d="M-133 -416h-168l1102 1891h168z" />
<glyph unicode="0" d="M115 436q0 143 48 332.5t116 312.5q168 303 454 303q180 0 275.5 -109.5t95.5 -316.5q0 -221 -63.5 -431t-176.5 -361q-139 -184 -368 -184q-381 -1 -381 454zM313 406q0 -268 191 -269q162 0 282 256q53 115 86 274.5t33 299.5q0 135 -44 197.5t-140 62.5 q-168 0 -291 -277q-47 -111 -82 -269t-35 -275z" />
<glyph unicode="1" d="M395 0l221 1044q16 72 33 111q-39 -39 -100 -80l-156 -104l-88 145l408 250h170l-291 -1366h-197z" />
<glyph unicode="2" d="M0 0l43 199q244 178 496 401q309 276 309 447q0 82 -60.5 128t-164.5 46q-162 0 -336 -84l20 180q176 68 348 67q182 0 288 -82.5t106 -226.5q0 -233 -291 -516q-254 -242 -494 -395h639l-35 -164h-868z" />
<glyph unicode="3" d="M16 49l47 168q145 -78 314 -78q158 0 262 80t104 201q0 213 -348 213q-33 0 -57 -2l35 164q18 -2 41 -2q207 0 324.5 69.5t117.5 192.5q0 82 -58.5 127t-166.5 45q-147 0 -330 -68l23 182q188 43 323 43q193 0 300.5 -80.5t107.5 -224.5q0 -176 -148 -291 q-76 -55 -202 -77q100 -29 145 -68q88 -76 88 -219q0 -193 -158 -324q-145 -119 -399 -118q-191 -1 -365 67z" />
<glyph unicode="4" d="M29 299l34 164l752 903h281l-193 -903h172l-35 -164h-172l-63 -299h-199l64 299h-641zM279 463h426l151 635q20 86 53 172q-59 -104 -157 -226z" />
<glyph unicode="5" d="M74 29l37 166q166 -55 274 -56q172 0 280.5 95.5t108.5 244.5q0 104 -80 165t-217 61q-121 0 -254 -37l164 698h733l-35 -164h-553l-86 -350q53 10 107 10q197 0 307.5 -96t110.5 -268q0 -106 -44 -209t-120 -172q-147 -135 -414 -135q-172 0 -319 47z" />
<glyph unicode="6" d="M1163 1335l-57 -157q-109 49 -221 49q-248 0 -402 -236q-47 -70 -112 -250q131 143 315 144q162 0 256 -96.5t94 -264.5q0 -119 -41 -229.5t-110 -183.5q-125 -129 -346 -129q-193 0 -297.5 110.5t-104.5 317.5q0 319 156 620q184 354 577 354q133 0 293 -49zM336 369 q0 -106 56.5 -168t152.5 -62q119 0 207 113t88 262q0 96 -57.5 154.5t-151.5 58.5q-123 0 -209 -104t-86 -254z" />
<glyph unicode="7" d="M150 0l774 1202h-668l35 164h874l-41 -180l-743 -1186h-231z" />
<glyph unicode="8" d="M80 338q0 158 99.5 263.5t269.5 125.5q-193 121 -193 301q0 162 122 259t322 97q195 0 306.5 -81.5t111.5 -225.5q0 -121 -85 -214t-238 -142q211 -94 211 -313q0 -170 -119 -293q-133 -133 -369 -133q-199 0 -318.5 97t-119.5 259zM653 788q145 70 206 130.5t61 138.5 q0 76 -61.5 123t-160.5 47q-109 0 -179 -55.5t-70 -139.5q-1 -133 204 -244zM580 647l-50 -16q-121 -41 -185 -113t-64 -164q0 -96 68.5 -155.5t180.5 -59.5q117 0 199 77t82 185q0 74 -39 120t-145 102q-10 6 -47 24z" />
<glyph unicode="9" d="M43 37l57 166q139 -63 248 -64q248 0 391 248q31 55 107 262q-72 -82 -138.5 -114.5t-160.5 -32.5q-168 0 -267.5 98t-99.5 266q0 225 143.5 371.5t364.5 146.5q379 0 379 -409q0 -170 -51 -361.5t-137 -341.5q-164 -291 -525 -290q-161 0 -311 55zM571 659 q123 0 210 100.5t87 244.5q0 98 -54 160.5t-138 62.5q-119 0 -208 -104.5t-89 -241.5q0 -102 51 -162t141 -60z" />
<glyph unicode=":" horiz-adv-x="509" d="M203 782l47 219h221l-47 -219h-221zM37 0l47 219h221l-47 -219h-221z" />
<glyph unicode=";" horiz-adv-x="632" d="M279 782l47 219h221l-47 -219h-221zM-55 -264l227 481h234l-275 -481h-186z" />
<glyph unicode="&#x3c;" horiz-adv-x="1024" d="M104 612v158l887 428v-184l-690 -322l690 -323v-183z" />
<glyph unicode="=" d="M141 766v149h942v-149h-942zM141 479v150h942v-150h-942z" />
<glyph unicode="&#x3e;" horiz-adv-x="1024" d="M104 186v183l691 323l-691 322v182l887 -426v-158z" />
<glyph unicode="?" horiz-adv-x="931" d="M303 381l21 104q20 98 60 157.5t138 137.5q143 113 172 148q47 61 47 127q0 80 -58 123t-169 43q-137 0 -293 -68l23 186q186 47 303 47q188 0 291.5 -80.5t103.5 -226.5q0 -137 -104 -254q-35 -39 -64 -64.5t-162 -133.5q-61 -51 -86.5 -100.5t-40.5 -145.5h-182zM221 0 l45 211h207l-45 -211h-207z" />
<glyph unicode="@" horiz-adv-x="1562" d="M1290 178l33 -119q-201 -86 -446 -86q-322 0 -523 195q-98 96 -153.5 231.5t-55.5 278.5q0 301 208 508t509 207q279 0 464 -173t185 -436q0 -190 -102 -335.5t-235 -145.5q-59 0 -100.5 35t-51.5 94q-90 -141 -256 -141q-125 0 -206 93t-81 234q0 170 105.5 293 t253.5 123q158 0 217 -139l22 115h131l-82 -420q-12 -61 -12 -96t18.5 -58.5t47.5 -23.5q82 0 148.5 114.5t66.5 255.5q0 215 -148.5 353.5t-378.5 138.5q-250 0 -422 -173t-172 -427q0 -244 162 -416q160 -166 434 -166q230 0 420 86zM627 623q0 -88 48 -144.5t124 -56.5 q88 0 151.5 84t63.5 203q0 84 -44 135t-118 51q-90 0 -157.5 -80.5t-67.5 -191.5z" />
<glyph unicode="A" horiz-adv-x="1406" d="M-92 0l876 1366h207l299 -1366h-198l-74 342h-672l-217 -342h-221zM442 500h541l-92 477q-27 141 -31 229q-35 -86 -110 -211z" />
<glyph unicode="B" horiz-adv-x="1159" d="M55 0l291 1366h283q233 0 342 -55q68 -35 107.5 -105.5t39.5 -154.5q0 -131 -78.5 -222.5t-216.5 -119.5q229 -57 230 -275q0 -98 -47.5 -190t-126.5 -150q-135 -94 -430 -94h-394zM420 782h141q168 0 246 45q55 31 88 87.5t33 117.5q0 176 -271 176h-147zM287 158h151 q197 0 289 47q61 33 98 93t37 130q0 117 -88 166q-68 39 -252 39h-135z" />
<glyph unicode="C" horiz-adv-x="1216" d="M1063 203l-25 -185q-123 -37 -270 -36q-287 0 -463 166.5t-176 437.5q0 182 75 347t208 273q215 178 542 178q193 0 334 -63l-55 -168q-131 61 -285 61q-262 0 -437 -175t-175 -435q0 -207 124 -329.5t333 -122.5q145 0 270 51z" />
<glyph unicode="D" horiz-adv-x="1378" d="M55 0l291 1366h213q203 0 328 -25.5t223 -89.5q225 -141 225 -471q0 -201 -80.5 -372.5t-220.5 -266.5q-117 -80 -275.5 -110.5t-447.5 -30.5h-256zM289 168h125q307 0 460 92q119 72 187.5 209t68.5 301q0 225 -130 326.5t-414 101.5h-78z" />
<glyph unicode="E" horiz-adv-x="1038" d="M55 0l291 1366h746l-35 -168h-549l-86 -410h512l-35 -167h-514l-96 -453h573l-35 -168h-772z" />
<glyph unicode="F" horiz-adv-x="980" d="M55 0l291 1366h721l-37 -168h-522l-88 -416h489l-37 -168h-487l-131 -614h-199z" />
<glyph unicode="G" horiz-adv-x="1370" d="M1292 756l-155 -727q-141 -47 -326 -47q-324 0 -504 159.5t-180 450.5q0 172 69.5 333.5t188.5 268.5q219 190 559 190q236 0 422 -79l-55 -170q-186 80 -361 79q-264 0 -430 -153q-86 -80 -137 -204t-51 -255q0 -205 127 -327.5t340 -122.5q90 0 172 26l88 410h-287 l35 168h485z" />
<glyph unicode="H" horiz-adv-x="1378" d="M55 0l291 1366h197l-121 -573h653l123 573h199l-291 -1366h-199l133 625h-655l-131 -625h-199z" />
<glyph unicode="I" horiz-adv-x="512" d="M47 0l291 1366h197l-289 -1366h-199z" />
<glyph unicode="J" horiz-adv-x="716" d="M-92 16l35 172q88 -37 151 -36q115 0 168 63q43 51 84 240l195 911h198l-211 -993q-49 -221 -137 -299q-109 -92 -282 -92q-99 -1 -201 34z" />
<glyph unicode="K" horiz-adv-x="1239" d="M55 0l291 1366h197l-127 -602l651 602h260l-733 -670l551 -696h-248l-504 655l-139 -655h-199z" />
<glyph unicode="L" horiz-adv-x="919" d="M55 0l291 1366h197l-254 -1198h573l-37 -168h-770z" />
<glyph unicode="M" horiz-adv-x="1804" d="M55 0l291 1366h328l133 -854q27 -184 27 -262v-10l-3 -68q18 84 132 274l542 920h316l-289 -1366h-184l190 897q43 203 96 373h-8q-61 -147 -182 -346l-553 -924h-191l-108 639q-80 473 -86 635h-8q-16 -135 -101 -531l-157 -743h-185z" />
<glyph unicode="N" horiz-adv-x="1394" d="M55 0l291 1366h256l248 -727q133 -395 139 -524q12 184 72 460l168 791h184l-291 -1366h-256l-262 772q-102 299 -123 463q-6 -119 -39 -277l-202 -958h-185z" />
<glyph unicode="O" horiz-adv-x="1480" d="M123 565q0 164 65.5 331t176.5 280q199 209 518 208q258 0 401 -148.5t143 -416.5q0 -166 -60 -328.5t-167 -287.5q-190 -221 -520 -221q-268 0 -412.5 151t-144.5 432zM328 553q0 -190 98 -295.5t276 -105.5q236 0 373 200q147 213 148 477q0 172 -96.5 278.5 t-252.5 106.5q-238 0 -397 -215q-68 -90 -108.5 -212.5t-40.5 -233.5z" />
<glyph unicode="P" horiz-adv-x="1103" d="M55 0l291 1366h264q244 0 369 -76q147 -90 147 -282q0 -102 -46 -196.5t-124 -152.5q-147 -113 -442 -112h-143l-117 -547h-199zM406 715h110q211 0 301 67q104 78 105 213q0 203 -310 203h-104z" />
<glyph unicode="Q" horiz-adv-x="1480" d="M930 -252l-197 236q-23 -2 -57 -2q-260 0 -406.5 151.5t-146.5 419.5q0 174 64.5 341t177.5 282q209 209 518 208q258 0 401 -148.5t143 -416.5q0 -272 -142 -499.5t-357 -301.5l241 -270h-239zM328 553q0 -190 98 -295.5t276 -105.5q236 0 373 200q147 213 148 477 q0 172 -96.5 278.5t-252.5 106.5q-238 0 -397 -215q-68 -90 -108.5 -212.5t-40.5 -233.5z" />
<glyph unicode="R" horiz-adv-x="1191" d="M55 0l291 1366h248q166 0 246 -12.5t143 -44.5q145 -78 145 -265q0 -147 -98 -254.5t-252 -125.5q57 -20 78 -49t43 -111l129 -504h-201l-106 453q-23 100 -63 125.5t-166 25.5h-111l-127 -604h-199zM418 772h114q174 0 265 45q57 27 91 82t34 117q0 104 -78 147 q-63 35 -236 35h-100z" />
<glyph unicode="S" horiz-adv-x="1040" d="M45 63l61 170q166 -82 295 -81.5t213 71t84 178.5q0 98 -88 166q-20 16 -172 107q-113 70 -164 143.5t-51 169.5q0 174 129 285.5t330 111.5q174 0 324 -69l-50 -170q-127 70 -266 69q-117 0 -189.5 -56t-72.5 -150q0 -66 39 -110t160 -114q158 -90 217 -168.5t59 -199.5 q0 -195 -133 -314.5t-350 -119.5q-205 -1 -375 81z" />
<glyph unicode="T" horiz-adv-x="1075" d="M332 0l254 1198h-426l35 168h1048l-37 -168h-422l-256 -1198h-196z" />
<glyph unicode="U" horiz-adv-x="1374" d="M1405 1366l-164 -770q-41 -195 -93 -304.5t-134 -178.5q-150 -131 -389 -131q-213 0 -345.5 111.5t-132.5 291.5q0 117 31 258l154 723h198l-159 -743q-27 -117 -27 -197q0 -123 80 -198.5t209 -75.5q86 0 162.5 36.5t124.5 100.5q80 104 131 344l157 733h197z" />
<glyph unicode="V" horiz-adv-x="1284" d="M412 0l-224 1366h197l121 -786q49 -324 49 -443q57 154 186 373l504 856h213l-813 -1366h-233z" />
<glyph unicode="W" horiz-adv-x="1959" d="M315 0l-114 1366h192l51 -704l9 -124q4 -65 7 -98.5t3 -44.5q4 -78 4 -274q16 96 151 385l404 860h264l29 -731q8 -213 8 -336q0 -88 -8 -178q33 129 192 446l404 799h209l-707 -1366h-254l-35 936q-2 37 -2 141q0 88 6 180q-49 -164 -151 -385l-404 -872h-258z" />
<glyph unicode="X" horiz-adv-x="1290" d="M-102 0l657 733l-326 633h211l267 -516l452 516h246l-590 -655l359 -711h-218l-288 592l-518 -592h-252z" />
<glyph unicode="Y" horiz-adv-x="1273" d="M424 0l123 573l-367 793h217l271 -612l538 612h248l-711 -793l-120 -573h-199z" />
<glyph unicode="Z" horiz-adv-x="1142" d="M-14 0l34 166l920 1032h-692l35 168h915l-37 -170l-901 -1028h713l-35 -168h-952z" />
<glyph unicode="[" horiz-adv-x="681" d="M256 -287h197l-29 -129h-375l402 1891h376l-28 -129h-195z" />
<glyph unicode="\" horiz-adv-x="759" d="M508 -416l-297 1891h156l297 -1891h-156z" />
<glyph unicode="]" horiz-adv-x="681" d="M86 -287l346 1633h-194l26 129h377l-403 -1891h-375l26 129h197z" />
<glyph unicode="^" horiz-adv-x="1024" d="M76 729l352 641h242l352 -641h-197l-276 496l-277 -496h-196z" />
<glyph unicode="_" horiz-adv-x="1024" d="M0 -121h1024v-168h-1024v168z" />
<glyph unicode="`" horiz-adv-x="1024" d="M668 1161l-232 281h193l162 -281h-123z" />
<glyph unicode="a" horiz-adv-x="1036" d="M815 0h-168q12 115 29 174q-121 -190 -336 -190q-141 0 -228 78.5t-87 205.5q0 88 44 162t117 111q150 76 416 75q78 0 150 -10q6 61 6 80q0 88 -59.5 138t-161.5 50q-150 0 -312 -77l37 170q162 51 285 51q178 0 282.5 -83t104.5 -226q0 -57 -8 -110.5t-62 -315.5 q-6 -21 -49 -283zM219 279q0 -68 48 -110t124 -42q129 0 219 102q66 80 105 248q-66 4 -88 4q-195 0 -301.5 -53t-106.5 -149z" />
<glyph unicode="b" horiz-adv-x="1187" d="M31 0l317 1475h182l-131 -619q76 90 149 126t181 36q176 0 277.5 -106.5t101.5 -293.5q0 -127 -42 -252.5t-114 -218.5q-129 -164 -352 -163q-150 0 -240 57q-74 45 -102 154l-41 -195h-186zM317 428q0 -139 69 -220t185 -81q150 0 242 145q98 158 98 346 q0 121 -59 188.5t-166 67.5q-145 0 -257 -134t-112 -312z" />
<glyph unicode="c" horiz-adv-x="905" d="M764 172l-37 -160q-121 -29 -213 -28q-205 0 -319.5 115.5t-114.5 320.5q0 266 157.5 432t407.5 166q123 0 252 -45l-43 -142q-111 43 -197 43q-166 0 -273.5 -126.5t-107.5 -323.5q0 -143 72 -220t205 -77q88 0 211 45z" />
<glyph unicode="d" horiz-adv-x="1187" d="M938 0h-172q12 98 29 158q-59 -92 -135 -133t-191 -41q-180 0 -285.5 113.5t-105.5 308.5q0 238 139 425q139 186 373 187q164 0 258 -82q55 -45 72 -135q8 84 36 221l97 453h184l-244 -1147q-28 -138 -55 -328zM276 426q0 -143 61.5 -221t172.5 -78q147 0 248.5 133 t101.5 328q0 133 -64.5 209.5t-177.5 76.5q-143 0 -233 -116q-109 -144 -109 -332z" />
<glyph unicode="e" horiz-adv-x="1050" d="M856 186l-35 -159q-154 -43 -280 -43q-227 0 -346 109.5t-119 316.5q0 125 44 248.5t120 207.5q135 152 368 152q182 0 283.5 -99.5t101.5 -275.5q0 -72 -22 -186h-705q-8 -66 -8 -90q0 -115 80 -177.5t227 -62.5q123 0 291 59zM293 600h514q6 43 6 78q0 90 -55.5 143 t-151.5 53q-141 0 -231 -106q-51 -59 -82 -168z" />
<glyph unicode="f" horiz-adv-x="710" d="M111 0l182 858h-240l31 143h240l26 119q25 111 57.5 173.5t90.5 109.5q104 82 241 82q57 0 140 -23l-31 -151q-55 16 -90 16q-123 0 -185 -108q-29 -55 -63 -218h272l-30 -143h-275l-182 -858h-184z" />
<glyph unicode="g" horiz-adv-x="1169" d="M59 -201q186 -86 332 -86q231 0 316 199q23 51 67 242q-61 -84 -133 -120t-172 -36q-182 0 -285.5 111.5t-103.5 308.5q0 244 145 428q135 172 369 172q268 0 326 -201q10 76 36 184h177l-207 -972q-31 -145 -75 -227.5t-122 -137.5q-137 -94 -342 -94q-158 0 -362 74z M279 434q0 -139 61 -216t172 -77q145 0 245.5 133.5t100.5 325.5q0 125 -65.5 199.5t-174.5 74.5q-139 0 -239 -130t-100 -310z" />
<glyph unicode="h" horiz-adv-x="1155" d="M31 0l313 1475h184l-129 -609q68 84 138.5 118t173.5 34q158 0 250 -80t92 -215q0 -96 -31 -234l-104 -489h-185l119 555q18 92 18 135q0 80 -52 129t-138 49q-131 0 -228.5 -105.5t-136.5 -291.5l-100 -471h-184z" />
<glyph unicode="i" horiz-adv-x="464" d="M266 1161l43 205h207l-43 -205h-207zM31 0l213 1001h184l-213 -1001h-184z" />
<glyph unicode="j" horiz-adv-x="495" d="M289 1161l43 205h209l-43 -205h-209zM41 -76l227 1077h185l-232 -1085q-39 -193 -92 -256q-35 -41 -97.5 -65.5t-129.5 -24.5q-66 0 -150 29l33 147q49 -20 88 -20q72 0 107.5 42.5t60.5 155.5z" />
<glyph unicode="k" horiz-adv-x="1040" d="M31 0l313 1475h184l-182 -863l473 389h266l-565 -450l410 -551h-236l-368 516l-111 -516h-184z" />
<glyph unicode="l" horiz-adv-x="464" d="M31 0l313 1475h184l-313 -1475h-184z" />
<glyph unicode="m" horiz-adv-x="1695" d="M31 0l213 1001h166q-20 -111 -39 -165q125 182 327.5 182t272.5 -182q131 182 338 182q135 0 216 -69.5t81 -188.5q0 -68 -25 -185l-123 -575h-182l123 584q20 102 20 131q0 72 -42 112.5t-115 40.5q-115 0 -197 -97t-119 -275l-104 -496h-185l121 580q23 113 23 145 q0 63 -44 103t-114 40q-117 0 -203 -107.5t-129 -307.5l-96 -453h-184z" />
<glyph unicode="n" horiz-adv-x="1169" d="M43 0l152 713q16 78 49 288h178l-14 -67l-13 -70q-6 -27 -14 -51q68 109 152.5 157t203.5 48q147 0 236.5 -84t89.5 -223q0 -106 -33 -258l-96 -453h-184l98 465q31 150 31 231q0 78 -51.5 125t-135.5 47q-143 0 -239 -116q-88 -106 -136 -328l-90 -424h-184z" />
<glyph unicode="o" horiz-adv-x="1165" d="M80 438q0 117 47 235t125 195q150 150 393 150q207 0 324.5 -119t117.5 -328q0 -135 -53 -260t-143 -200q-147 -127 -365 -127q-207 0 -326.5 121.5t-119.5 332.5zM279 428q0 -139 67.5 -220t183.5 -81q145 0 251 134t106 319q0 137 -67.5 215.5t-182.5 78.5 q-150 0 -254 -131t-104 -315z" />
<glyph unicode="p" horiz-adv-x="1179" d="M236 49l-99 -465h-184l225 1063q47 217 66 354h174q-6 -55 -33 -155q70 92 149.5 132t190.5 40q174 0 274.5 -107.5t100.5 -292.5q0 -129 -42 -254.5t-116 -218.5q-131 -162 -362 -161q-170 0 -258 88q-39 39 -66 112q-6 -72 -20 -135zM319 410q0 -133 65 -208t179 -75 q152 0 242 143q98 160 98 348q0 121 -57.5 188.5t-159.5 67.5q-150 0 -258.5 -138t-108.5 -326z" />
<glyph unicode="q" horiz-adv-x="1181" d="M659 -416l113 531q-80 -78 -142.5 -104.5t-160.5 -26.5q-176 0 -283.5 113.5t-107.5 299.5q0 236 129 422q139 199 391 199q172 0 258 -92q37 -37 66 -109l39 184h184l-301 -1417h-185zM276 422q0 -141 61.5 -218t174.5 -77q143 0 240 125q109 147 108 340 q0 129 -65.5 205.5t-176.5 76.5q-143 0 -242.5 -132t-99.5 -320z" />
<glyph unicode="r" horiz-adv-x="735" d="M39 0l151 711q27 117 50 290h172q-12 -111 -35 -190q51 86 94 127q90 80 223 80q59 0 115 -23l-33 -151q-63 25 -106 24q-264 0 -355 -430l-92 -438h-184z" />
<glyph unicode="s" horiz-adv-x="782" d="M-4 31l33 153q123 -57 235 -57q90 0 146.5 42t56.5 112q0 68 -64 125q-14 12 -151 108q-129 92 -129 223q0 125 102.5 203t266.5 78q143 0 272 -53l-51 -142q-117 51 -213 51q-80 0 -128 -34.5t-48 -94.5q0 -39 21.5 -64.5t84.5 -66.5q104 -70 168 -133q68 -66 68 -166 q0 -145 -113 -238t-289 -93q-127 0 -268 47z" />
<glyph unicode="t" horiz-adv-x="727" d="M600 164l-33 -150q-80 -31 -157 -30q-125 0 -191.5 57t-66.5 164q0 59 16 135l111 518h-226l31 143h225l49 234l199 72l-63 -306h272l-31 -143h-272l-109 -510q-12 -57 -12 -104q0 -51 38 -81t101 -30q56 0 119 31z" />
<glyph unicode="u" horiz-adv-x="1150" d="M737 0l8 74q6 45 21 112q-59 -88 -111 -127q-102 -76 -241 -75q-143 0 -233.5 77.5t-90.5 202.5q0 74 23 180l118 557h185l-125 -587q-12 -53 -12 -103q0 -80 51 -129t135 -49q117 0 211 98q100 109 151 347l91 423h184l-144 -679q-37 -172 -57 -322h-164z" />
<glyph unicode="v" horiz-adv-x="940" d="M250 0l-160 1001h189l83 -579q23 -147 23 -236v-49q25 80 86 195l363 669h196l-561 -1001h-219z" />
<glyph unicode="w" horiz-adv-x="1622" d="M229 0l-112 1001h184l53 -593q12 -133 13 -205l-5 -74l27 66q109 262 414 806h221l53 -552q14 -156 15 -246q0 -41 -2 -74q41 139 143 338l278 534h201l-543 -1001h-206l-66 584q-14 129 -14 211q0 2 4 84q-29 -113 -125 -289l-320 -590h-213z" />
<glyph unicode="x" horiz-adv-x="958" d="M-102 0l462 526l-213 475h199l156 -360l299 360h225l-426 -479l244 -522h-207l-172 395l-334 -395h-233z" />
<glyph unicode="y" horiz-adv-x="956" d="M225 -109l41 72l-164 1038h191l92 -657q16 -109 16 -154v-30q23 63 74 159l371 682h198l-651 -1153q-90 -158 -170 -216t-211 -58q-61 0 -129 18l33 154q43 -14 88 -14q74 0 121 34.5t100 124.5z" />
<glyph unicode="z" horiz-adv-x="978" d="M-27 0l33 147l723 711h-567l31 143h790l-31 -145l-727 -713h594l-31 -143h-815z" />
<glyph unicode="{" horiz-adv-x="1009" d="M262 -117l82 389q10 55 10 84q0 86 -84 107l29 133q66 16 100.5 59t53.5 129l86 406q33 156 125 220.5t272 64.5h33l-27 -132q-119 0 -163 -32.5t-66 -134.5l-86 -404q-20 -100 -58.5 -153.5t-111.5 -88.5q78 -55 78 -147q0 -43 -13 -100l-84 -396q-12 -55 -12 -86 q0 -47 38 -66.5t132 -17.5l-29 -133h-32h-58q-229 0 -229 185q0 42 14 114z" />
<glyph unicode="|" horiz-adv-x="1024" d="M457 -342v1708h184v-1708h-184z" />
<glyph unicode="}" horiz-adv-x="1009" d="M76 -283q119 0 163 32t66 136l86 402q20 102 58 154.5t112 88.5q-78 53 -78 146q0 41 13 102l82 393q14 66 14 86q0 47 -38 66.5t-132 19.5l27 132h34h56q113 0 172 -47.5t59 -137.5q0 -43 -14 -114l-82 -390q-10 -41 -10 -84q0 -86 84 -106l-29 -133 q-68 -16 -102.5 -59.5t-53.5 -129.5l-86 -405q-33 -156 -125 -220.5t-272 -64.5h-33z" />
<glyph unicode="~" horiz-adv-x="1366" d="M332 1180l-107 69q47 98 76 135q84 115 213 115q74 0 225 -65q137 -61 192.5 -61.5t91.5 27t83 103.5l108 -63q-61 -125 -124 -178q-86 -66 -183 -66q-66 0 -289 94q-68 31 -118.5 31t-88.5 -31.5t-79 -109.5z" />
<glyph unicode="&#xa2;" d="M522 -18l39 178q-156 31 -238.5 141.5t-82.5 284.5q0 258 148.5 424t389.5 174l37 168h109l-37 -172q86 -10 170 -41l-41 -142q-92 37 -160 43l-158 -747q117 2 228 43l-37 -158q-123 -31 -221 -28l-35 -168h-111zM594 313l154 721q-139 -27 -224.5 -148.5t-85.5 -295.5 q0 -214 156 -277z" />
<glyph unicode="&#xa3;" d="M49 0l33 158h184l109 506h-166l22 108h166l31 148q51 244 168 348q125 109 322 108q125 0 284 -53l-45 -160q-115 49 -221 49q-182 0 -264 -159q-33 -66 -76 -281h319l-24 -108h-318l-108 -506h489l-34 -158h-871z" />
<glyph unicode="&#xa5;" d="M354 0l117 530h-362l24 109h330l-35 111h-281l23 108h223l-160 508h179l188 -612l465 612h209l-379 -508h244l-23 -108h-305l-80 -111h359l-23 -109h-397l-119 -530h-197z" />
<glyph unicode="&#xa8;" horiz-adv-x="1024" d="M756 1194l41 199h180l-43 -199h-178zM385 1194l43 199h178l-43 -199h-178z" />
<glyph unicode="&#xa9;" horiz-adv-x="1595" d="M135 682q0 295 205 498.5t502 203.5q283 0 485.5 -206.5t202.5 -493.5q0 -291 -205 -496.5t-491.5 -205.5t-492.5 205.5t-206 494.5zM244 684q0 -248 173 -425t416.5 -177t415.5 177t172 425q0 246 -171 424t-408 178q-250 0 -424 -175t-174 -427zM1075 440l8 -121 q-84 -29 -186 -28q-205 0 -326.5 106.5t-121.5 288.5q0 170 120.5 278.5t313.5 108.5q113 0 192 -37l-10 -118q-94 47 -176 47q-133 0 -217 -78t-84 -199q0 -123 87 -204t218 -81q84 0 182 37z" />
<glyph unicode="&#xab;" horiz-adv-x="1046" d="M694 102l-188 428l344 373h182l-334 -403l164 -398h-168zM279 102l-185 473l328 328h188l-321 -371l151 -430h-161z" />
<glyph unicode="&#xad;" horiz-adv-x="514" d="M-14 449l32 153h514l-32 -153h-514z" />
<glyph unicode="&#xae;" horiz-adv-x="1595" d="M135 682q0 295 205 498.5t502 203.5q283 0 485.5 -206.5t202.5 -493.5q0 -291 -205 -496.5t-491.5 -205.5t-492.5 205.5t-206 494.5zM244 684q0 -248 173 -425t416.5 -177t415.5 177t172 425q0 246 -171 424t-408 178q-250 0 -424 -175t-174 -427zM575 297v772h203 q119 0 187 -20q63 -20 101 -71.5t38 -115.5q0 -141 -154 -180q47 -27 80 -96l144 -289h-150l-109 231q-33 70 -58.5 88.5t-90.5 18.5h-59v-338h-132zM707 743h63q106 0 152.5 26t46.5 85q0 57 -44 82t-143 25h-75v-218z" />
<glyph unicode="&#xb4;" horiz-adv-x="1024" d="M518 1161l225 281h205l-299 -281h-131z" />
<glyph unicode="&#xb8;" horiz-adv-x="1024" d="M315 -158l109 158h84l-78 -109q55 8 76 9q66 0 104.5 -36t38.5 -93q0 -74 -71.5 -126.5t-171.5 -52.5q-98 0 -187 41l41 68q66 -27 129 -27q51 0 83 22.5t32 59.5q0 29 -25.5 48.5t-60.5 19.5q-25 0 -74 -14z" />
<glyph unicode="&#xbb;" horiz-adv-x="1046" d="M430 102l324 371l-152 430h162l182 -473l-328 -328h-188zM8 102l336 404l-166 397h170l189 -428l-344 -373h-185z" />
<glyph unicode="&#xc1;" horiz-adv-x="1406" d="M846 1493l213 266h233l-305 -266h-141zM-92 0l876 1366h207l299 -1366h-198l-74 342h-672l-217 -342h-221zM442 500h541l-92 477q-27 141 -31 229q-35 -86 -110 -211z" />
<glyph unicode="&#xc4;" horiz-adv-x="1406" d="M1042 1520l43 198h187l-45 -198h-185zM643 1520l43 198h186l-43 -198h-186zM-92 0l876 1366h207l299 -1366h-198l-74 342h-672l-217 -342h-221zM442 500h541l-92 477q-27 141 -31 229q-35 -86 -110 -211z" />
<glyph unicode="&#xc9;" horiz-adv-x="1038" d="M657 1493l213 266h234l-305 -266h-142zM55 0l291 1366h746l-35 -168h-549l-86 -410h512l-35 -167h-514l-96 -453h573l-35 -168h-772z" />
<glyph unicode="&#xcd;" horiz-adv-x="512" d="M383 1493l201 266h225l-285 -266h-141zM47 0l291 1366h197l-289 -1366h-199z" />
<glyph unicode="&#xd3;" horiz-adv-x="1480" d="M846 1493l213 266h233l-305 -266h-141zM123 565q0 164 65.5 331t176.5 280q199 209 518 208q258 0 401 -148.5t143 -416.5q0 -166 -60 -328.5t-167 -287.5q-190 -221 -520 -221q-268 0 -412.5 151t-144.5 432zM328 553q0 -190 98 -295.5t276 -105.5q236 0 373 200 q147 213 148 477q0 172 -96.5 278.5t-252.5 106.5q-238 0 -397 -215q-68 -90 -108.5 -212.5t-40.5 -233.5z" />
<glyph unicode="&#xd4;" horiz-adv-x="1480" d="M625 1493l280 266h182l166 -266h-163l-111 170l-182 -170h-172zM123 565q0 164 65.5 331t176.5 280q199 209 518 208q258 0 401 -148.5t143 -416.5q0 -166 -60 -328.5t-167 -287.5q-190 -221 -520 -221q-268 0 -412.5 151t-144.5 432zM328 553q0 -190 98 -295.5 t276 -105.5q236 0 373 200q147 213 148 477q0 172 -96.5 278.5t-252.5 106.5q-238 0 -397 -215q-68 -90 -108.5 -212.5t-40.5 -233.5z" />
<glyph unicode="&#xda;" horiz-adv-x="1374" d="M813 1493l213 266h234l-306 -266h-141zM1405 1366l-164 -770q-41 -195 -93 -304.5t-134 -178.5q-150 -131 -389 -131q-213 0 -345.5 111.5t-132.5 291.5q0 117 31 258l154 723h198l-159 -743q-27 -117 -27 -197q0 -123 80 -198.5t209 -75.5q86 0 162.5 36.5t124.5 100.5 q80 104 131 344l157 733h197z" />
<glyph unicode="&#xdd;" horiz-adv-x="1273" d="M723 1493l213 266h233l-305 -266h-141zM424 0l123 573l-367 793h217l271 -612l538 612h248l-711 -793l-120 -573h-199z" />
<glyph unicode="&#xe1;" horiz-adv-x="1036" d="M563 1161l225 281h205l-299 -281h-131zM815 0h-168q12 115 29 174q-121 -190 -336 -190q-141 0 -228 78.5t-87 205.5q0 88 44 162t117 111q150 76 416 75q78 0 150 -10q6 61 6 80q0 88 -59.5 138t-161.5 50q-150 0 -312 -77l37 170q162 51 285 51q178 0 282.5 -83 t104.5 -226q0 -57 -8 -110.5t-62 -315.5q-6 -21 -49 -283zM219 279q0 -68 48 -110t124 -42q129 0 219 102q66 80 105 248q-66 4 -88 4q-195 0 -301.5 -53t-106.5 -149z" />
<glyph unicode="&#xe4;" horiz-adv-x="1036" d="M750 1194l41 199h180l-43 -199h-178zM379 1194l43 199h178l-43 -199h-178zM815 0h-168q12 115 29 174q-121 -190 -336 -190q-141 0 -228 78.5t-87 205.5q0 88 44 162t117 111q150 76 416 75q78 0 150 -10q6 61 6 80q0 88 -59.5 138t-161.5 50q-150 0 -312 -77l37 170 q162 51 285 51q178 0 282.5 -83t104.5 -226q0 -57 -8 -110.5t-62 -315.5q-6 -21 -49 -283zM219 279q0 -68 48 -110t124 -42q129 0 219 102q66 80 105 248q-66 4 -88 4q-195 0 -301.5 -53t-106.5 -149z" />
<glyph unicode="&#xe9;" horiz-adv-x="1050" d="M580 1161l225 281h205l-299 -281h-131zM856 186l-35 -159q-154 -43 -280 -43q-227 0 -346 109.5t-119 316.5q0 125 44 248.5t120 207.5q135 152 368 152q182 0 283.5 -99.5t101.5 -275.5q0 -72 -22 -186h-705q-8 -66 -8 -90q0 -115 80 -177.5t227 -62.5q123 0 291 59z M293 600h514q6 43 6 78q0 90 -55.5 143t-151.5 53q-141 0 -231 -106q-51 -59 -82 -168z" />
<glyph unicode="&#xed;" horiz-adv-x="464" d="M297 1161l213 281h197l-279 -281h-131zM31 0l213 1001h184l-213 -1001h-184z" />
<glyph unicode="&#xf3;" horiz-adv-x="1165" d="M629 1161l225 281h205l-299 -281h-131zM80 438q0 117 47 235t125 195q150 150 393 150q207 0 324.5 -119t117.5 -328q0 -135 -53 -260t-143 -200q-147 -127 -365 -127q-207 0 -326.5 121.5t-119.5 332.5zM279 428q0 -139 67.5 -220t183.5 -81q145 0 251 134t106 319 q0 137 -67.5 215.5t-182.5 78.5q-150 0 -254 -131t-104 -315z" />
<glyph unicode="&#xf4;" horiz-adv-x="1165" d="M416 1161l270 281h176l152 -281h-158l-98 189l-187 -189h-155zM80 438q0 117 47 235t125 195q150 150 393 150q207 0 324.5 -119t117.5 -328q0 -135 -53 -260t-143 -200q-147 -127 -365 -127q-207 0 -326.5 121.5t-119.5 332.5zM279 428q0 -139 67.5 -220t183.5 -81 q145 0 251 134t106 319q0 137 -67.5 215.5t-182.5 78.5q-150 0 -254 -131t-104 -315z" />
<glyph unicode="&#xfa;" horiz-adv-x="1150" d="M612 1161l226 281h204l-299 -281h-131zM737 0l8 74q6 45 21 112q-59 -88 -111 -127q-102 -76 -241 -75q-143 0 -233.5 77.5t-90.5 202.5q0 74 23 180l118 557h185l-125 -587q-12 -53 -12 -103q0 -80 51 -129t135 -49q117 0 211 98q100 109 151 347l91 423h184l-144 -679 q-37 -172 -57 -322h-164z" />
<glyph unicode="&#xfd;" horiz-adv-x="956" d="M502 1161l225 281h205l-299 -281h-131zM225 -109l41 72l-164 1038h191l92 -657q16 -109 16 -154v-30q23 63 74 159l371 682h198l-651 -1153q-90 -158 -170 -216t-211 -58q-61 0 -129 18l33 154q43 -14 88 -14q74 0 121 34.5t100 124.5z" />
<glyph unicode="&#x10c;" horiz-adv-x="1216" d="M893 1507l-151 281h155l101 -189l184 189h158l-271 -281h-176zM1063 203l-25 -185q-123 -37 -270 -36q-287 0 -463 166.5t-176 437.5q0 182 75 347t208 273q215 178 542 178q193 0 334 -63l-55 -168q-131 61 -285 61q-262 0 -437 -175t-175 -435q0 -207 124 -329.5 t333 -122.5q145 0 270 51z" />
<glyph unicode="&#x10d;" horiz-adv-x="905" d="M584 1141l-151 281h155l101 -189l184 189h158l-271 -281h-176zM764 172l-37 -160q-121 -29 -213 -28q-205 0 -319.5 115.5t-114.5 320.5q0 266 157.5 432t407.5 166q123 0 252 -45l-43 -142q-111 43 -197 43q-166 0 -273.5 -126.5t-107.5 -323.5q0 -143 72 -220t205 -77 q88 0 211 45z" />
<glyph unicode="&#x10e;" horiz-adv-x="1378" d="M844 1507l-151 281h155l101 -189l184 189h158l-271 -281h-176zM55 0l291 1366h213q203 0 328 -25.5t223 -89.5q225 -141 225 -471q0 -201 -80.5 -372.5t-220.5 -266.5q-117 -80 -275.5 -110.5t-447.5 -30.5h-256zM289 168h125q307 0 460 92q119 72 187.5 209t68.5 301 q0 225 -130 326.5t-414 101.5h-78z" />
<glyph unicode="&#x10f;" horiz-adv-x="1187" d="M1334 991l227 483h236l-277 -483h-186zM938 0h-172q12 98 29 158q-59 -92 -135 -133t-191 -41q-180 0 -285.5 113.5t-105.5 308.5q0 238 139 425q139 186 373 187q164 0 258 -82q55 -45 72 -135q8 84 36 221l97 453h184l-244 -1147q-28 -138 -55 -328zM276 426 q0 -143 61.5 -221t172.5 -78q147 0 248.5 133t101.5 328q0 133 -64.5 209.5t-177.5 76.5q-143 0 -233 -116q-109 -144 -109 -332z" />
<glyph unicode="&#x11a;" horiz-adv-x="1038" d="M661 1507l-151 281h155l101 -189l184 189h158l-271 -281h-176zM55 0l291 1366h746l-35 -168h-549l-86 -410h512l-35 -167h-514l-96 -453h573l-35 -168h-772z" />
<glyph unicode="&#x11b;" horiz-adv-x="1050" d="M547 1141l-151 281h155l101 -189l184 189h158l-271 -281h-176zM856 186l-35 -159q-154 -43 -280 -43q-227 0 -346 109.5t-119 316.5q0 125 44 248.5t120 207.5q135 152 368 152q182 0 283.5 -99.5t101.5 -275.5q0 -72 -22 -186h-705q-8 -66 -8 -90q0 -115 80 -177.5 t227 -62.5q123 0 291 59zM293 600h514q6 43 6 78q0 90 -55.5 143t-151.5 53q-141 0 -231 -106q-51 -59 -82 -168z" />
<glyph unicode="&#x139;" horiz-adv-x="919" d="M694 1507l225 281h205l-299 -281h-131zM55 0l291 1366h197l-254 -1198h573l-37 -168h-770z" />
<glyph unicode="&#x13a;" horiz-adv-x="464" d="M397 1597l225 281h205l-299 -281h-131zM31 0l313 1475h184l-313 -1475h-184z" />
<glyph unicode="&#x13d;" horiz-adv-x="919" d="M1198 901l227 483h236l-277 -483h-186zM55 0l291 1366h197l-254 -1198h573l-37 -168h-770z" />
<glyph unicode="&#x13e;" horiz-adv-x="464" d="M611 991l227 483h236l-277 -483h-186zM31 0l313 1475h184l-313 -1475h-184z" />
<glyph unicode="&#x147;" horiz-adv-x="1394" d="M821 1507l-151 281h155l101 -189l184 189h158l-271 -281h-176zM55 0l291 1366h256l248 -727q133 -395 139 -524q12 184 72 460l168 791h184l-291 -1366h-256l-262 772q-102 299 -123 463q-6 -119 -39 -277l-202 -958h-185z" />
<glyph unicode="&#x148;" horiz-adv-x="1169" d="M637 1141l-151 281h155l101 -189l184 189h158l-271 -281h-176zM43 0l152 713q16 78 49 288h178l-14 -67l-13 -70q-6 -27 -14 -51q68 109 152.5 157t203.5 48q147 0 236.5 -84t89.5 -223q0 -106 -33 -258l-96 -453h-184l98 465q31 150 31 231q0 78 -51.5 125t-135.5 47 q-143 0 -239 -116q-88 -106 -136 -328l-90 -424h-184z" />
<glyph unicode="&#x154;" horiz-adv-x="1191" d="M434 1507l225 281h205l-299 -281h-131zM55 0l291 1366h248q166 0 246 -12.5t143 -44.5q145 -78 145 -265q0 -147 -98 -254.5t-252 -125.5q57 -20 78 -49t43 -111l129 -504h-201l-106 453q-23 100 -63 125.5t-166 25.5h-111l-127 -604h-199zM418 772h114q174 0 265 45 q57 27 91 82t34 117q0 104 -78 147q-63 35 -236 35h-100z" />
<glyph unicode="&#x155;" horiz-adv-x="735" d="M489 1141l225 281h205l-299 -281h-131zM39 0l151 711q27 117 50 290h172q-12 -111 -35 -190q51 86 94 127q90 80 223 80q59 0 115 -23l-33 -151q-63 25 -106 24q-264 0 -355 -430l-92 -438h-184z" />
<glyph unicode="&#x158;" horiz-adv-x="1191" d="M411 1507l-151 281h155l101 -189l184 189h158l-271 -281h-176zM55 0l291 1366h248q166 0 246 -12.5t143 -44.5q145 -78 145 -265q0 -147 -98 -254.5t-252 -125.5q57 -20 78 -49t43 -111l129 -504h-201l-106 453q-23 100 -63 125.5t-166 25.5h-111l-127 -604h-199z M418 772h114q174 0 265 45q57 27 91 82t34 117q0 104 -78 147q-63 35 -236 35h-100z" />
<glyph unicode="&#x159;" horiz-adv-x="735" d="M467 1141l-151 281h155l101 -189l184 189h158l-271 -281h-176zM39 0l151 711q27 117 50 290h172q-12 -111 -35 -190q51 86 94 127q90 80 223 80q59 0 115 -23l-33 -151q-63 25 -106 24q-264 0 -355 -430l-92 -438h-184z" />
<glyph unicode="&#x160;" horiz-adv-x="1040" d="M610 1493l-164 266h164l111 -170l184 170h170l-282 -266h-183zM45 63l61 170q166 -82 295 -81.5t213 71t84 178.5q0 98 -88 166q-20 16 -172 107q-113 70 -164 143.5t-51 169.5q0 174 129 285.5t330 111.5q174 0 324 -69l-50 -170q-127 70 -266 69q-117 0 -189.5 -56 t-72.5 -150q0 -66 39 -110t160 -114q158 -90 217 -168.5t59 -199.5q0 -195 -133 -314.5t-350 -119.5q-205 -1 -375 81z" />
<glyph unicode="&#x161;" horiz-adv-x="782" d="M432 1161l-151 281h155l101 -189l184 189h158l-271 -281h-176zM-4 31l33 153q123 -57 235 -57q90 0 146.5 42t56.5 112q0 68 -64 125q-14 12 -151 108q-129 92 -129 223q0 125 102.5 203t266.5 78q143 0 272 -53l-51 -142q-117 51 -213 51q-80 0 -128 -34.5t-48 -94.5 q0 -39 21.5 -64.5t84.5 -66.5q104 -70 168 -133q68 -66 68 -166q0 -145 -113 -238t-289 -93q-127 0 -268 47z" />
<glyph unicode="&#x164;" horiz-adv-x="1075" d="M661 1507l-151 281h155l101 -189l184 189h158l-271 -281h-176zM332 0l254 1198h-426l35 168h1048l-37 -168h-422l-256 -1198h-196z" />
<glyph unicode="&#x165;" horiz-adv-x="727" d="M639 823l227 483h236l-277 -483h-186zM600 164l-33 -150q-80 -31 -157 -30q-125 0 -191.5 57t-66.5 164q0 59 16 135l111 518h-226l31 143h225l49 234l199 72l-63 -306h272l-31 -143h-272l-109 -510q-12 -57 -12 -104q0 -51 38 -81t101 -30q56 0 119 31z" />
<glyph unicode="&#x16e;" horiz-adv-x="1374" d="M942 1507q-82 0 -140.5 58.5t-58.5 142.5q0 82 59.5 139t143.5 57q78 0 136.5 -58t58.5 -140t-58.5 -140.5t-140.5 -58.5zM942 1607q39 0 68.5 30t29.5 69t-28.5 68.5t-67.5 29.5q-41 0 -70.5 -28.5t-29.5 -69.5t28.5 -70t69.5 -29zM1405 1366l-164 -770 q-41 -195 -93 -304.5t-134 -178.5q-150 -131 -389 -131q-213 0 -345.5 111.5t-132.5 291.5q0 117 31 258l154 723h198l-159 -743q-27 -117 -27 -197q0 -123 80 -198.5t209 -75.5q86 0 162.5 36.5t124.5 100.5q80 104 131 344l157 733h197z" />
<glyph unicode="&#x16f;" horiz-adv-x="1150" d="M739 1141q-82 0 -140.5 58.5t-58.5 142.5q0 82 59.5 139t143.5 57q78 0 136.5 -58t58.5 -140t-58.5 -140.5t-140.5 -58.5zM739 1241q39 0 68.5 30t29.5 69t-28.5 68.5t-67.5 29.5q-41 0 -70.5 -28.5t-29.5 -69.5t28.5 -70t69.5 -29zM737 0l8 74q6 45 21 112 q-59 -88 -111 -127q-102 -76 -241 -75q-143 0 -233.5 77.5t-90.5 202.5q0 74 23 180l118 557h185l-125 -587q-12 -53 -12 -103q0 -80 51 -129t135 -49q117 0 211 98q100 109 151 347l91 423h184l-144 -679q-37 -172 -57 -322h-164z" />
<glyph unicode="&#x17d;" horiz-adv-x="1142" d="M682 1493l-164 266h164l111 -170l184 170h170l-283 -266h-182zM-14 0l34 166l920 1032h-692l35 168h915l-37 -170l-901 -1028h713l-35 -168h-952z" />
<glyph unicode="&#x17e;" horiz-adv-x="978" d="M535 1161l-152 281h156l100 -189l184 189h158l-270 -281h-176zM-27 0l33 147l723 711h-567l31 143h790l-31 -145l-727 -713h594l-31 -143h-815z" />
<glyph unicode="&#x2c6;" horiz-adv-x="1024" d="M348 1161l270 281h177l151 -281h-158l-98 189l-186 -189h-156z" />
<glyph unicode="&#x2c7;" horiz-adv-x="1024" d="M561 1161l-151 281h155l101 -189l184 189h158l-271 -281h-176z" />
<glyph unicode="&#x2da;" horiz-adv-x="1024" d="M682 1110q-82 0 -140.5 58.5t-58.5 142.5q0 82 59.5 139t143.5 57q78 0 136.5 -58t58.5 -140t-58.5 -140.5t-140.5 -58.5zM682 1210q39 0 68.5 30t29.5 69t-28.5 68.5t-67.5 29.5q-41 0 -70.5 -28.5t-29.5 -69.5t28.5 -70t69.5 -29z" />
<glyph unicode="&#x2dc;" horiz-adv-x="1024" d="M365 1198q57 201 208 201q47 0 172 -60q47 -23 70 -22q59 0 84 76h98q-29 -96 -80 -149.5t-118 -53.5q-47 0 -211 78q-20 10 -41 10q-59 0 -86 -80h-96z" />
<glyph unicode="&#x2000;" horiz-adv-x="952" />
<glyph unicode="&#x2001;" horiz-adv-x="1904" />
<glyph unicode="&#x2002;" horiz-adv-x="952" />
<glyph unicode="&#x2003;" horiz-adv-x="1904" />
<glyph unicode="&#x2004;" horiz-adv-x="634" />
<glyph unicode="&#x2005;" horiz-adv-x="475" />
<glyph unicode="&#x2006;" horiz-adv-x="317" />
<glyph unicode="&#x2007;" horiz-adv-x="317" />
<glyph unicode="&#x2008;" horiz-adv-x="237" />
<glyph unicode="&#x2009;" horiz-adv-x="380" />
<glyph unicode="&#x200a;" horiz-adv-x="104" />
<glyph unicode="&#x2010;" horiz-adv-x="514" d="M-14 449l32 153h514l-32 -153h-514z" />
<glyph unicode="&#x2011;" horiz-adv-x="514" d="M-14 449l32 153h514l-32 -153h-514z" />
<glyph unicode="&#x2012;" horiz-adv-x="514" d="M-14 449l32 153h514l-32 -153h-514z" />
<glyph unicode="&#x2013;" d="M41 455l31 141h1036l-29 -141h-1038z" />
<glyph unicode="&#x2014;" horiz-adv-x="1429" d="M-12 455l30 141h1430l-31 -141h-1429z" />
<glyph unicode="&#x2018;" horiz-adv-x="618" d="M211 993l274 482h189l-228 -482h-235z" />
<glyph unicode="&#x2019;" horiz-adv-x="618" d="M211 993l227 482h236l-277 -482h-186z" />
<glyph unicode="&#x201a;" horiz-adv-x="618" d="M-55 -260l227 481h236l-277 -481h-186z" />
<glyph unicode="&#x201c;" horiz-adv-x="1001" d="M594 991l276 484h187l-228 -484h-235zM211 991l274 484h189l-228 -484h-235z" />
<glyph unicode="&#x201d;" horiz-adv-x="1001" d="M594 991l227 484h236l-277 -484h-186zM211 991l227 484h236l-277 -484h-186z" />
<glyph unicode="&#x201e;" horiz-adv-x="1001" d="M328 -262l227 481h236l-277 -481h-186zM-55 -262l227 481h236l-277 -481h-186z" />
<glyph unicode="&#x2026;" horiz-adv-x="1527" d="M1053 0l47 219h223l-47 -219h-223zM545 0l45 219h223l-47 -219h-221zM35 0l47 219h221l-45 -219h-223z" />
<glyph unicode="&#x202f;" horiz-adv-x="380" />
<glyph unicode="&#x2039;" horiz-adv-x="632" d="M281 100l-191 455l344 348h184l-329 -391l160 -412h-168z" />
<glyph unicode="&#x203a;" horiz-adv-x="632" d="M8 100l330 392l-160 411h170l189 -454l-344 -349h-185z" />
<glyph unicode="&#x205f;" horiz-adv-x="475" />
<glyph unicode="&#x20ac;" horiz-adv-x="1470" d="M115 547l57 108h133q4 33 10 68h-163l57 108h133q82 260 270.5 406.5t444.5 146.5q231 0 370 -116l-102 -189q-100 135 -274 135q-156 0 -285 -100t-205 -283h633l-57 -108h-611l-6 -27q-4 -25 -6 -41h586l-58 -108h-538q0 -184 100.5 -289.5t274.5 -105.5q156 0 280 98 l-49 -230q-111 -39 -250 -38q-266 0 -410.5 145t-150.5 420h-184z" />
<glyph unicode="&#x2122;" horiz-adv-x="1726" d="M750 588l165 780h211l88 -481q14 -70 19 -146q29 57 59 109l322 518h205l-166 -780h-127l108 510q14 76 35 149q-61 -111 -78 -137l-327 -522h-123l-72 362q-33 158 -53 307l-21 -110q0 -6 -16 -78l-12 -57l-90 -424h-127zM270 588l144 669h-256l22 111h645l-22 -111 h-254l-143 -669h-136z" />
<glyph unicode="&#xe000;" horiz-adv-x="1000" d="M0 1000h1000v-1000h-1000v1000z" />
<glyph unicode="&#xfb01;" horiz-adv-x="1177" d="M111 0l182 858h-240l31 143h240l26 119q25 111 57.5 173.5t90.5 109.5q104 82 241 82q57 0 140 -23l-31 -151q-55 16 -90 16q-123 0 -185 -108q-29 -55 -63 -218h272l-30 -143h-275l-182 -858h-184zM979 1161l43 205h207l-43 -205h-207zM743 0l213 1001h185l-213 -1001 h-185z" />
<glyph unicode="&#xfb02;" horiz-adv-x="1177" d="M111 0l182 858h-240l31 143h240l26 119q25 111 57.5 173.5t90.5 109.5q104 82 241 82q57 0 140 -23l-31 -151q-55 16 -90 16q-123 0 -185 -108q-29 -55 -63 -218h272l-30 -143h-275l-182 -858h-184zM743 0l314 1475h184l-313 -1475h-185z" />
<glyph unicode="&#xfb03;" horiz-adv-x="1808" d="M111 0l182 858h-240l31 143h240l26 119q25 111 57.5 173.5t90.5 109.5q104 82 241 82q57 0 140 -23l-31 -151q-55 16 -90 16q-123 0 -185 -108q-29 -55 -63 -218h446l25 119q23 109 56.5 172.5t92.5 110.5q100 82 242 82q55 0 139 -23l-32 -151q-51 16 -88 16 q-123 0 -185 -108q-31 -55 -63 -218h270l-31 -143h-272l-182 -858h-185l183 858h-449l-182 -858h-184zM1612 1161l43 205h207l-45 -205h-205zM1374 0l213 1001h185l-213 -1001h-185z" />
<glyph unicode="&#xfb04;" horiz-adv-x="1808" d="M111 0l182 858h-240l31 143h240l26 119q25 111 57.5 173.5t90.5 109.5q104 82 241 82q57 0 140 -23l-31 -151q-55 16 -90 16q-123 0 -185 -108q-29 -55 -63 -218h446l25 119q23 109 56.5 172.5t92.5 110.5q100 82 242 82q55 0 139 -23l-32 -151q-51 16 -88 16 q-123 0 -185 -108q-31 -55 -63 -218h270l-31 -143h-272l-182 -858h-185l183 858h-449l-182 -858h-184zM1374 0l316 1475h184l-315 -1475h-185z" />
</font>
</defs>
</svg>
